# xmcd CD database file
#
# Track frame offsets:
#	150
#	25211
#	39565
#	58293
#	90191
#	127690
#	140652
#	164181
#	178395
#	220851
#	250985
#	274641
#	286129
#	302203
#
# Disc length: 4206 seconds
#
# Revision: 0
# Processed by: cddbd v1.5.2PL0 Copyright (c) Steve Scherf et al.
# Submitted via: CDex 1.70beta2
#
DISCID=d0106c0e
DTITLE=WDR Big Band Cologne  - Blues and Beyond
DYEAR=2008
DGENRE=Blues
TTITLE0=Everyday I Have The Blues
TTITLE1=Ol' Man River
TTITLE2=I've Got It Bad
TTITLE3=Rag's Groove
TTITLE4=Since I Fell For You
TTITLE5=Dearly Beloved
TTITLE6=You Are So Beautiful
TTITLE7=Smack Dab In The Middle
TTITLE8=Reverence
TTITLE9=It Don't Mean A Thing
TTITLE10=If I Were A Bell
TTITLE11=Honeysuckle Rose
TTITLE12=Jimmy's Blues
TTITLE13=Hallelujah I Love Her So
EXTD=YEAR: 2008
EXTT0=
EXTT1=
EXTT2=
EXTT3=
EXTT4=
EXTT5=
EXTT6=
EXTT7=
EXTT8=
EXTT9=
EXTT10=
EXTT11=
EXTT12=
EXTT13=
PLAYORDER=
